<svg width="284" height="56" viewBox="0 0 284 56" fill="none" xmlns="http://www.w3.org/2000/svg">
<path d="M66.1958 36.24C65.5758 36.24 65.0958 36.07 64.7558 35.73C64.4358 35.37 64.2758 34.88 64.2758 34.26V16.59C64.2758 15.95 64.4358 15.46 64.7558 15.12C65.0958 14.78 65.5758 14.61 66.1958 14.61C66.8158 14.61 67.2858 14.78 67.6058 15.12C67.9458 15.46 68.1158 15.95 68.1158 16.59V23.67H79.0058V16.59C79.0058 15.95 79.1658 15.46 79.4858 15.12C79.8258 14.78 80.3058 14.61 80.9258 14.61C81.5458 14.61 82.0158 14.78 82.3358 15.12C82.6758 15.46 82.8458 15.95 82.8458 16.59V34.26C82.8458 34.88 82.6758 35.37 82.3358 35.73C82.0158 36.07 81.5458 36.24 80.9258 36.24C80.3058 36.24 79.8258 36.07 79.4858 35.73C79.1658 35.37 79.0058 34.88 79.0058 34.26V26.88H68.1158V34.26C68.1158 34.88 67.9558 35.37 67.6358 35.73C67.3158 36.07 66.8358 36.24 66.1958 36.24ZM93.8089 36.3C92.2889 36.3 90.9689 35.99 89.8489 35.37C88.7289 34.75 87.8589 33.87 87.2389 32.73C86.6189 31.57 86.3089 30.21 86.3089 28.65C86.3089 27.47 86.4789 26.42 86.8189 25.5C87.1789 24.56 87.6889 23.76 88.3489 23.1C89.0089 22.42 89.7989 21.91 90.7189 21.57C91.6389 21.21 92.6689 21.03 93.8089 21.03C95.3289 21.03 96.6489 21.34 97.7689 21.96C98.8889 22.58 99.7589 23.46 100.379 24.6C100.999 25.74 101.309 27.09 101.309 28.65C101.309 29.83 101.129 30.89 100.769 31.83C100.429 32.77 99.9289 33.58 99.2689 34.26C98.6089 34.92 97.8189 35.43 96.8989 35.79C95.9789 36.13 94.9489 36.3 93.8089 36.3ZM93.8089 33.45C94.5489 33.45 95.1989 33.27 95.7589 32.91C96.3189 32.55 96.7489 32.02 97.0489 31.32C97.3689 30.6 97.5289 29.71 97.5289 28.65C97.5289 27.05 97.1889 25.86 96.5089 25.08C95.8289 24.28 94.9289 23.88 93.8089 23.88C93.0689 23.88 92.4189 24.06 91.8589 24.42C91.2989 24.76 90.8589 25.29 90.5389 26.01C90.2389 26.71 90.0889 27.59 90.0889 28.65C90.0889 30.23 90.4289 31.43 91.1089 32.25C91.7889 33.05 92.6889 33.45 93.8089 33.45ZM110.978 36.3C109.678 36.3 108.588 36.08 107.708 35.64C106.848 35.2 106.208 34.56 105.788 33.72C105.368 32.86 105.158 31.8 105.158 30.54V24.15H103.598C103.118 24.15 102.748 24.03 102.488 23.79C102.228 23.53 102.098 23.18 102.098 22.74C102.098 22.28 102.228 21.93 102.488 21.69C102.748 21.45 103.118 21.33 103.598 21.33H105.158V18.6C105.158 17.98 105.318 17.51 105.638 17.19C105.978 16.87 106.448 16.71 107.048 16.71C107.648 16.71 108.108 16.87 108.428 17.19C108.748 17.51 108.908 17.98 108.908 18.6V21.33H112.088C112.568 21.33 112.938 21.45 113.198 21.69C113.458 21.93 113.588 22.28 113.588 22.74C113.588 23.18 113.458 23.53 113.198 23.79C112.938 24.03 112.568 24.15 112.088 24.15H108.908V30.33C108.908 31.29 109.118 32.01 109.538 32.49C109.958 32.97 110.638 33.21 111.578 33.21C111.918 33.21 112.218 33.18 112.478 33.12C112.738 33.06 112.968 33.02 113.168 33C113.408 32.98 113.608 33.06 113.768 33.24C113.928 33.4 114.008 33.74 114.008 34.26C114.008 34.66 113.938 35.02 113.798 35.34C113.678 35.64 113.448 35.85 113.108 35.97C112.848 36.05 112.508 36.12 112.088 36.18C111.668 36.26 111.298 36.3 110.978 36.3ZM122.855 36.3C121.195 36.3 119.765 35.99 118.565 35.37C117.365 34.75 116.435 33.87 115.775 32.73C115.135 31.59 114.815 30.24 114.815 28.68C114.815 27.16 115.125 25.83 115.745 24.69C116.385 23.55 117.255 22.66 118.355 22.02C119.475 21.36 120.745 21.03 122.165 21.03C123.205 21.03 124.135 21.2 124.955 21.54C125.795 21.88 126.505 22.37 127.085 23.01C127.685 23.65 128.135 24.43 128.435 25.35C128.755 26.25 128.915 27.27 128.915 28.41C128.915 28.77 128.785 29.05 128.525 29.25C128.285 29.43 127.935 29.52 127.475 29.52H117.845V27.36H126.275L125.795 27.81C125.795 26.89 125.655 26.12 125.375 25.5C125.115 24.88 124.725 24.41 124.205 24.09C123.705 23.75 123.075 23.58 122.315 23.58C121.475 23.58 120.755 23.78 120.155 24.18C119.575 24.56 119.125 25.11 118.805 25.83C118.505 26.53 118.355 27.37 118.355 28.35V28.56C118.355 30.2 118.735 31.43 119.495 32.25C120.275 33.05 121.415 33.45 122.915 33.45C123.435 33.45 124.015 33.39 124.655 33.27C125.315 33.13 125.935 32.9 126.515 32.58C126.935 32.34 127.305 32.24 127.625 32.28C127.945 32.3 128.195 32.41 128.375 32.61C128.575 32.81 128.695 33.06 128.735 33.36C128.775 33.64 128.715 33.93 128.555 34.23C128.415 34.53 128.165 34.79 127.805 35.01C127.105 35.45 126.295 35.78 125.375 36C124.475 36.2 123.635 36.3 122.855 36.3ZM136.895 36.3C135.235 36.3 133.985 35.83 133.145 34.89C132.305 33.93 131.885 32.53 131.885 30.69V16.5C131.885 15.88 132.045 15.41 132.365 15.09C132.685 14.77 133.145 14.61 133.745 14.61C134.345 14.61 134.805 14.77 135.125 15.09C135.465 15.41 135.635 15.88 135.635 16.5V30.51C135.635 31.43 135.825 32.11 136.205 32.55C136.605 32.99 137.165 33.21 137.885 33.21C138.045 33.21 138.195 33.21 138.335 33.21C138.475 33.19 138.615 33.17 138.755 33.15C139.035 33.11 139.225 33.19 139.325 33.39C139.425 33.57 139.475 33.95 139.475 34.53C139.475 35.03 139.375 35.42 139.175 35.7C138.975 35.98 138.645 36.15 138.185 36.21C137.985 36.23 137.775 36.25 137.555 36.27C137.335 36.29 137.115 36.3 136.895 36.3ZM143.625 36.24C143.065 36.24 142.635 36.08 142.335 35.76C142.035 35.44 141.885 35 141.885 34.44V16.41C141.885 15.83 142.045 15.39 142.365 15.09C142.685 14.77 143.125 14.61 143.685 14.61C144.185 14.61 144.575 14.71 144.855 14.91C145.155 15.09 145.425 15.41 145.665 15.87L153.075 29.58H152.115L159.525 15.87C159.765 15.41 160.025 15.09 160.305 14.91C160.585 14.71 160.975 14.61 161.475 14.61C162.035 14.61 162.465 14.77 162.765 15.09C163.065 15.39 163.215 15.83 163.215 16.41V34.44C163.215 35 163.065 35.44 162.765 35.76C162.485 36.08 162.055 36.24 161.475 36.24C160.915 36.24 160.485 36.08 160.185 35.76C159.885 35.44 159.735 35 159.735 34.44V20.55H160.395L154.095 32.04C153.895 32.38 153.685 32.63 153.465 32.79C153.245 32.95 152.945 33.03 152.565 33.03C152.185 33.03 151.875 32.95 151.635 32.79C151.395 32.61 151.185 32.36 151.005 32.04L144.645 20.52H145.365V34.44C145.365 35 145.215 35.44 144.915 35.76C144.635 36.08 144.205 36.24 143.625 36.24ZM172.34 36.3C171.28 36.3 170.33 36.1 169.49 35.7C168.67 35.28 168.02 34.72 167.54 34.02C167.08 33.32 166.85 32.53 166.85 31.65C166.85 30.57 167.13 29.72 167.69 29.1C168.25 28.46 169.16 28 170.42 27.72C171.68 27.44 173.37 27.3 175.49 27.3H176.99V29.46H175.52C174.28 29.46 173.29 29.52 172.55 29.64C171.81 29.76 171.28 29.97 170.96 30.27C170.66 30.55 170.51 30.95 170.51 31.47C170.51 32.13 170.74 32.67 171.2 33.09C171.66 33.51 172.3 33.72 173.12 33.72C173.78 33.72 174.36 33.57 174.86 33.27C175.38 32.95 175.79 32.52 176.09 31.98C176.39 31.44 176.54 30.82 176.54 30.12V26.67C176.54 25.67 176.32 24.95 175.88 24.51C175.44 24.07 174.7 23.85 173.66 23.85C173.08 23.85 172.45 23.92 171.77 24.06C171.11 24.2 170.41 24.44 169.67 24.78C169.29 24.96 168.95 25.01 168.65 24.93C168.37 24.85 168.15 24.69 167.99 24.45C167.83 24.19 167.75 23.91 167.75 23.61C167.75 23.31 167.83 23.02 167.99 22.74C168.15 22.44 168.42 22.22 168.8 22.08C169.72 21.7 170.6 21.43 171.44 21.27C172.3 21.11 173.08 21.03 173.78 21.03C175.22 21.03 176.4 21.25 177.32 21.69C178.26 22.13 178.96 22.8 179.42 23.7C179.88 24.58 180.11 25.72 180.11 27.12V34.32C180.11 34.94 179.96 35.42 179.66 35.76C179.36 36.08 178.93 36.24 178.37 36.24C177.81 36.24 177.37 36.08 177.05 35.76C176.75 35.42 176.6 34.94 176.6 34.32V32.88H176.84C176.7 33.58 176.42 34.19 176 34.71C175.6 35.21 175.09 35.6 174.47 35.88C173.85 36.16 173.14 36.3 172.34 36.3ZM185.776 36.24C185.176 36.24 184.716 36.08 184.396 35.76C184.076 35.42 183.916 34.94 183.916 34.32V22.98C183.916 22.36 184.076 21.89 184.396 21.57C184.716 21.25 185.166 21.09 185.746 21.09C186.326 21.09 186.776 21.25 187.096 21.57C187.416 21.89 187.576 22.36 187.576 22.98V25.02L187.246 24.27C187.686 23.21 188.366 22.41 189.286 21.87C190.226 21.31 191.286 21.03 192.466 21.03C193.646 21.03 194.616 21.25 195.376 21.69C196.136 22.13 196.706 22.8 197.086 23.7C197.466 24.58 197.656 25.7 197.656 27.06V34.32C197.656 34.94 197.496 35.42 197.176 35.76C196.856 36.08 196.396 36.24 195.796 36.24C195.196 36.24 194.726 36.08 194.386 35.76C194.066 35.42 193.906 34.94 193.906 34.32V27.24C193.906 26.1 193.686 25.27 193.246 24.75C192.826 24.23 192.166 23.97 191.266 23.97C190.166 23.97 189.286 24.32 188.626 25.02C187.986 25.7 187.666 26.61 187.666 27.75V34.32C187.666 35.6 187.036 36.24 185.776 36.24ZM206.295 36.3C205.235 36.3 204.285 36.1 203.445 35.7C202.625 35.28 201.975 34.72 201.495 34.02C201.035 33.32 200.805 32.53 200.805 31.65C200.805 30.57 201.085 29.72 201.645 29.1C202.205 28.46 203.115 28 204.375 27.72C205.635 27.44 207.325 27.3 209.445 27.3H210.945V29.46H209.475C208.235 29.46 207.245 29.52 206.505 29.64C205.765 29.76 205.235 29.97 204.915 30.27C204.615 30.55 204.465 30.95 204.465 31.47C204.465 32.13 204.695 32.67 205.155 33.09C205.615 33.51 206.255 33.72 207.075 33.72C207.735 33.72 208.315 33.57 208.815 33.27C209.335 32.95 209.745 32.52 210.045 31.98C210.345 31.44 210.495 30.82 210.495 30.12V26.67C210.495 25.67 210.275 24.95 209.835 24.51C209.395 24.07 208.655 23.85 207.615 23.85C207.035 23.85 206.405 23.92 205.725 24.06C205.065 24.2 204.365 24.44 203.625 24.78C203.245 24.96 202.905 25.01 202.605 24.93C202.325 24.85 202.105 24.69 201.945 24.45C201.785 24.19 201.705 23.91 201.705 23.61C201.705 23.31 201.785 23.02 201.945 22.74C202.105 22.44 202.375 22.22 202.755 22.08C203.675 21.7 204.555 21.43 205.395 21.27C206.255 21.11 207.035 21.03 207.735 21.03C209.175 21.03 210.355 21.25 211.275 21.69C212.215 22.13 212.915 22.8 213.375 23.7C213.835 24.58 214.065 25.72 214.065 27.12V34.32C214.065 34.94 213.915 35.42 213.615 35.76C213.315 36.08 212.885 36.24 212.325 36.24C211.765 36.24 211.325 36.08 211.005 35.76C210.705 35.42 210.555 34.94 210.555 34.32V32.88H210.795C210.655 33.58 210.375 34.19 209.955 34.71C209.555 35.21 209.045 35.6 208.425 35.88C207.805 36.16 207.095 36.3 206.295 36.3ZM224.711 41.7C223.631 41.7 222.581 41.6 221.561 41.4C220.561 41.2 219.651 40.89 218.831 40.47C218.451 40.27 218.191 40.03 218.051 39.75C217.931 39.47 217.891 39.18 217.931 38.88C217.991 38.6 218.111 38.35 218.291 38.13C218.491 37.91 218.731 37.76 219.011 37.68C219.291 37.6 219.581 37.64 219.881 37.8C220.761 38.24 221.591 38.52 222.371 38.64C223.171 38.78 223.851 38.85 224.411 38.85C225.751 38.85 226.751 38.52 227.411 37.86C228.091 37.22 228.431 36.26 228.431 34.98V32.28H228.701C228.401 33.3 227.771 34.12 226.811 34.74C225.871 35.34 224.801 35.64 223.601 35.64C222.281 35.64 221.131 35.34 220.151 34.74C219.171 34.12 218.411 33.26 217.871 32.16C217.331 31.06 217.061 29.78 217.061 28.32C217.061 27.22 217.211 26.23 217.511 25.35C217.831 24.45 218.271 23.68 218.831 23.04C219.411 22.4 220.101 21.91 220.901 21.57C221.721 21.21 222.621 21.03 223.601 21.03C224.841 21.03 225.921 21.34 226.841 21.96C227.781 22.56 228.391 23.36 228.671 24.36L228.371 25.11V22.98C228.371 22.36 228.531 21.89 228.851 21.57C229.191 21.25 229.651 21.09 230.231 21.09C230.831 21.09 231.291 21.25 231.611 21.57C231.931 21.89 232.091 22.36 232.091 22.98V34.53C232.091 36.91 231.461 38.7 230.201 39.9C228.941 41.1 227.111 41.7 224.711 41.7ZM224.621 32.79C225.401 32.79 226.071 32.61 226.631 32.25C227.191 31.89 227.621 31.38 227.921 30.72C228.241 30.04 228.401 29.24 228.401 28.32C228.401 26.94 228.061 25.86 227.381 25.08C226.701 24.28 225.781 23.88 224.621 23.88C223.841 23.88 223.171 24.06 222.611 24.42C222.051 24.78 221.611 25.29 221.291 25.95C220.991 26.61 220.841 27.4 220.841 28.32C220.841 29.7 221.181 30.79 221.861 31.59C222.541 32.39 223.461 32.79 224.621 32.79ZM243.206 36.3C241.546 36.3 240.116 35.99 238.916 35.37C237.716 34.75 236.786 33.87 236.126 32.73C235.486 31.59 235.166 30.24 235.166 28.68C235.166 27.16 235.476 25.83 236.096 24.69C236.736 23.55 237.606 22.66 238.706 22.02C239.826 21.36 241.096 21.03 242.516 21.03C243.556 21.03 244.486 21.2 245.306 21.54C246.146 21.88 246.856 22.37 247.436 23.01C248.036 23.65 248.486 24.43 248.786 25.35C249.106 26.25 249.266 27.27 249.266 28.41C249.266 28.77 249.136 29.05 248.876 29.25C248.636 29.43 248.286 29.52 247.826 29.52H238.196V27.36H246.626L246.146 27.81C246.146 26.89 246.006 26.12 245.726 25.5C245.466 24.88 245.076 24.41 244.556 24.09C244.056 23.75 243.426 23.58 242.666 23.58C241.826 23.58 241.106 23.78 240.506 24.18C239.926 24.56 239.476 25.11 239.156 25.83C238.856 26.53 238.706 27.37 238.706 28.35V28.56C238.706 30.2 239.086 31.43 239.846 32.25C240.626 33.05 241.766 33.45 243.266 33.45C243.786 33.45 244.366 33.39 245.006 33.27C245.666 33.13 246.286 32.9 246.866 32.58C247.286 32.34 247.656 32.24 247.976 32.28C248.296 32.3 248.546 32.41 248.726 32.61C248.926 32.81 249.046 33.06 249.086 33.36C249.126 33.64 249.066 33.93 248.906 34.23C248.766 34.53 248.516 34.79 248.156 35.01C247.456 35.45 246.646 35.78 245.726 36C244.826 36.2 243.986 36.3 243.206 36.3ZM254.156 36.24C253.536 36.24 253.056 36.08 252.716 35.76C252.396 35.42 252.236 34.94 252.236 34.32V22.98C252.236 22.36 252.396 21.89 252.716 21.57C253.036 21.25 253.486 21.09 254.066 21.09C254.646 21.09 255.096 21.25 255.416 21.57C255.736 21.89 255.896 22.36 255.896 22.98V24.87H255.596C255.876 23.67 256.426 22.76 257.246 22.14C258.066 21.52 259.156 21.15 260.516 21.03C260.936 20.99 261.266 21.1 261.506 21.36C261.766 21.6 261.916 21.98 261.956 22.5C261.996 23 261.876 23.41 261.596 23.73C261.336 24.03 260.936 24.21 260.396 24.27L259.736 24.33C258.516 24.45 257.596 24.83 256.976 25.47C256.356 26.09 256.046 26.97 256.046 28.11V34.32C256.046 34.94 255.886 35.42 255.566 35.76C255.246 36.08 254.776 36.24 254.156 36.24Z" fill="#2CB1BC"/>
<path d="M0 6C0 2.68629 2.68629 0 6 0H44C47.3137 0 50 2.68629 50 6V44C50 47.3137 47.3137 50 44 50H6C2.68629 50 0 47.3137 0 44V6Z" fill="#2CB1BC"/>
<path d="M6.82518 34.208C6.28785 34.208 5.87185 34.0607 5.57718 33.766C5.29985 33.454 5.16118 33.0293 5.16118 32.492V17.178C5.16118 16.6233 5.29985 16.1987 5.57718 15.904C5.87185 15.6093 6.28785 15.462 6.82518 15.462C7.36251 15.462 7.76985 15.6093 8.04718 15.904C8.34185 16.1987 8.48918 16.6233 8.48918 17.178V23.314H17.9272V17.178C17.9272 16.6233 18.0658 16.1987 18.3432 15.904C18.6378 15.6093 19.0538 15.462 19.5912 15.462C20.1285 15.462 20.5358 15.6093 20.8132 15.904C21.1078 16.1987 21.2552 16.6233 21.2552 17.178V32.492C21.2552 33.0293 21.1078 33.454 20.8132 33.766C20.5358 34.0607 20.1285 34.208 19.5912 34.208C19.0538 34.208 18.6378 34.0607 18.3432 33.766C18.0658 33.454 17.9272 33.0293 17.9272 32.492V26.096H8.48918V32.492C8.48918 33.0293 8.35051 33.454 8.07318 33.766C7.79585 34.0607 7.37985 34.208 6.82518 34.208ZM26.8306 34.208C26.3452 34.208 25.9726 34.0693 25.7126 33.792C25.4526 33.5147 25.3226 33.1333 25.3226 32.648V17.022C25.3226 16.5193 25.4612 16.138 25.7386 15.878C26.0159 15.6007 26.3972 15.462 26.8826 15.462C27.3159 15.462 27.6539 15.5487 27.8966 15.722C28.1566 15.878 28.3906 16.1553 28.5986 16.554L35.0206 28.436H34.1886L40.6106 16.554C40.8186 16.1553 41.0439 15.878 41.2866 15.722C41.5292 15.5487 41.8672 15.462 42.3006 15.462C42.7859 15.462 43.1586 15.6007 43.4186 15.878C43.6786 16.138 43.8086 16.5193 43.8086 17.022V32.648C43.8086 33.1333 43.6786 33.5147 43.4186 33.792C43.1759 34.0693 42.8032 34.208 42.3006 34.208C41.8152 34.208 41.4426 34.0693 41.1826 33.792C40.9226 33.5147 40.7926 33.1333 40.7926 32.648V20.61H41.3646L35.9046 30.568C35.7312 30.8627 35.5492 31.0793 35.3586 31.218C35.1679 31.3567 34.9079 31.426 34.5786 31.426C34.2492 31.426 33.9806 31.3567 33.7726 31.218C33.5646 31.062 33.3826 30.8453 33.2266 30.568L27.7146 20.584H28.3386V32.648C28.3386 33.1333 28.2086 33.5147 27.9486 33.792C27.7059 34.0693 27.3332 34.208 26.8306 34.208Z" fill="white"/>
</svg>
